# xmcd CD database file
#
# Track frame offsets:
#	150
#	17395
#	30937
#	49722
#	67500
#	85880
#	102830
#	121062
#	139267
#	153517
#	167260
#	182065
#	194437
#	217102
#	230732
#
# Disc length: 3165 seconds
#
# Revision: 0
# Processed by: cddbd v1.4PL0 Copyright (c) Steve Scherf et al.
# Submitted via: CDex 1.40Beta9
#
DISCID=b80c5b0f
DTITLE=Jane Manson - Country girl
DYEAR=1900
DGENRE=Country
TTITLE0=Le temps perdu
TTITLE1=Je vais toujours trop vite
TTITLE2=Rester, ou partir
TTITLE3=Ce que femme veut
TTITLE4=Croire en toi
TTITLE5=Mes intentions sont pacifiques
TTITLE6=Que la chanson est belle
TTITLE7=La cité des anges
TTITLE8=Ma cabane au bord du bayou
TTITLE9=Je te dis merci pour tout
TTITLE10=Je vais conduire, tu pourras dormir
TTITLE11=C'est toi que j'aime
TTITLE12=Il faut apprendre à dire adieu
TTITLE13=Libre
TTITLE14=Oh Susannah
EXTD=ID3G: 2
EXTT0=
EXTT1=
EXTT2=
EXTT3=
EXTT4=
EXTT5=
EXTT6=
EXTT7=
EXTT8=
EXTT9=
EXTT10=
EXTT11=
EXTT12=
EXTT13=
EXTT14=
PLAYORDER=
